<mxfile host="app.diagrams.net" agent="Mozilla/5.0 (Windows NT 10.0; Win64; x64) AppleWebKit/537.36 (KHTML, like Gecko) Chrome/137.0.0.0 Safari/537.36" version="27.1.4">
  <diagram name="Page-1" id="dXzUIzDlLdUPVaghMCPx">
    <mxGraphModel dx="1226" dy="661" grid="1" gridSize="10" guides="1" tooltips="1" connect="1" arrows="1" fold="1" page="1" pageScale="1" pageWidth="1100" pageHeight="1700" math="0" shadow="0">
      <root>
        <mxCell id="0" />
        <mxCell id="1" parent="0" />
        <mxCell id="8kfr4gid1qoiPzw3sICz-77" value="" style="rounded=0;whiteSpace=wrap;html=1;fillColor=none;dashed=1;dashPattern=1 4;movable=1;resizable=1;rotatable=1;deletable=1;editable=1;locked=0;connectable=1;" vertex="1" parent="1">
          <mxGeometry x="680" y="150" width="80" height="200" as="geometry" />
        </mxCell>
        <mxCell id="8kfr4gid1qoiPzw3sICz-1" value="" style="rounded=0;whiteSpace=wrap;html=1;fillColor=none;movable=0;resizable=0;rotatable=0;deletable=0;editable=0;locked=1;connectable=0;" vertex="1" parent="1">
          <mxGeometry x="270" y="130" width="530" height="350" as="geometry" />
        </mxCell>
        <mxCell id="8kfr4gid1qoiPzw3sICz-2" value="Policy engine,, policy adaptors for different equipments" style="rounded=0;whiteSpace=wrap;html=1;" vertex="1" parent="1">
          <mxGeometry x="290" y="150" width="120" height="60" as="geometry" />
        </mxCell>
        <mxCell id="8kfr4gid1qoiPzw3sICz-3" value="Policy management&lt;div&gt;&lt;br&gt;&lt;div&gt;&lt;span style=&quot;background-color: transparent; color: light-dark(rgb(0, 0, 0), rgb(255, 255, 255));&quot;&gt;&amp;nbsp;Security Dashboard&lt;/span&gt;&lt;/div&gt;&lt;div&gt;&lt;span style=&quot;background-color: transparent; color: light-dark(rgb(0, 0, 0), rgb(255, 255, 255));&quot;&gt;&lt;br&gt;&lt;/span&gt;&lt;/div&gt;&lt;div&gt;&lt;span style=&quot;background-color: transparent; color: light-dark(rgb(0, 0, 0), rgb(255, 255, 255));&quot;&gt;Device, User, Inventory and work location management&lt;/span&gt;&lt;/div&gt;&lt;/div&gt;&lt;div&gt;&lt;span style=&quot;background-color: transparent; color: light-dark(rgb(0, 0, 0), rgb(255, 255, 255));&quot;&gt;&lt;br&gt;&lt;/span&gt;&lt;/div&gt;&lt;div&gt;&lt;span style=&quot;background-color: transparent; color: light-dark(rgb(0, 0, 0), rgb(255, 255, 255));&quot;&gt;Manage enterprise&lt;/span&gt;&lt;/div&gt;&lt;div&gt;&lt;span style=&quot;background-color: transparent; color: light-dark(rgb(0, 0, 0), rgb(255, 255, 255));&quot;&gt;&lt;br&gt;&lt;/span&gt;&lt;/div&gt;&lt;div&gt;&lt;span style=&quot;background-color: transparent; color: light-dark(rgb(0, 0, 0), rgb(255, 255, 255));&quot;&gt;&amp;nbsp;Enterprise onboarding&lt;/span&gt;&lt;/div&gt;&lt;div&gt;&lt;span style=&quot;background-color: transparent; color: light-dark(rgb(0, 0, 0), rgb(255, 255, 255));&quot;&gt;&lt;br&gt;&lt;/span&gt;&lt;/div&gt;&lt;div&gt;&lt;span style=&quot;background-color: transparent; color: light-dark(rgb(0, 0, 0), rgb(255, 255, 255));&quot;&gt;Tower management&lt;/span&gt;&lt;/div&gt;&lt;div&gt;&lt;span style=&quot;background-color: transparent; color: light-dark(rgb(0, 0, 0), rgb(255, 255, 255));&quot;&gt;&lt;br&gt;&lt;/span&gt;&lt;/div&gt;" style="rounded=0;whiteSpace=wrap;html=1;fillColor=none;movable=0;resizable=0;rotatable=0;deletable=0;editable=0;locked=1;connectable=0;" vertex="1" parent="1">
          <mxGeometry x="670" y="150" width="100" height="300" as="geometry" />
        </mxCell>
        <mxCell id="8kfr4gid1qoiPzw3sICz-4" value="Cell towers" style="rounded=0;whiteSpace=wrap;html=1;" vertex="1" parent="1">
          <mxGeometry x="70" y="60" width="80" height="30" as="geometry" />
        </mxCell>
        <mxCell id="8kfr4gid1qoiPzw3sICz-6" value="Event service" style="rounded=0;whiteSpace=wrap;html=1;" vertex="1" parent="1">
          <mxGeometry x="290" y="220" width="120" height="60" as="geometry" />
        </mxCell>
        <mxCell id="8kfr4gid1qoiPzw3sICz-7" value="" style="endArrow=classic;html=1;rounded=0;exitX=0.5;exitY=1;exitDx=0;exitDy=0;entryX=0;entryY=0.5;entryDx=0;entryDy=0;" edge="1" parent="1" source="8kfr4gid1qoiPzw3sICz-4" target="8kfr4gid1qoiPzw3sICz-6">
          <mxGeometry width="50" height="50" relative="1" as="geometry">
            <mxPoint x="100" y="160" as="sourcePoint" />
            <mxPoint x="80" y="130" as="targetPoint" />
          </mxGeometry>
        </mxCell>
        <mxCell id="8kfr4gid1qoiPzw3sICz-32" value="Tower Event" style="edgeLabel;html=1;align=center;verticalAlign=middle;resizable=0;points=[];" vertex="1" connectable="0" parent="8kfr4gid1qoiPzw3sICz-7">
          <mxGeometry x="-0.3743" y="-2" relative="1" as="geometry">
            <mxPoint as="offset" />
          </mxGeometry>
        </mxCell>
        <mxCell id="8kfr4gid1qoiPzw3sICz-24" value="" style="endArrow=none;dashed=1;html=1;dashPattern=1 3;strokeWidth=2;rounded=0;" edge="1" parent="1">
          <mxGeometry width="50" height="50" relative="1" as="geometry">
            <mxPoint x="540" y="460" as="sourcePoint" />
            <mxPoint x="540" y="140" as="targetPoint" />
          </mxGeometry>
        </mxCell>
        <mxCell id="8kfr4gid1qoiPzw3sICz-25" value="" style="endArrow=none;dashed=1;html=1;dashPattern=1 3;strokeWidth=2;rounded=0;" edge="1" parent="1">
          <mxGeometry width="50" height="50" relative="1" as="geometry">
            <mxPoint x="280" y="460" as="sourcePoint" />
            <mxPoint x="280" y="130" as="targetPoint" />
          </mxGeometry>
        </mxCell>
        <mxCell id="8kfr4gid1qoiPzw3sICz-28" value="" style="endArrow=none;dashed=1;html=1;dashPattern=1 3;strokeWidth=2;rounded=0;" edge="1" parent="1">
          <mxGeometry width="50" height="50" relative="1" as="geometry">
            <mxPoint x="280" y="460" as="sourcePoint" />
            <mxPoint x="540" y="460" as="targetPoint" />
          </mxGeometry>
        </mxCell>
        <mxCell id="8kfr4gid1qoiPzw3sICz-30" value="Backend" style="edgeLabel;html=1;align=center;verticalAlign=middle;resizable=0;points=[];" vertex="1" connectable="0" parent="8kfr4gid1qoiPzw3sICz-28">
          <mxGeometry x="0.5185" y="1" relative="1" as="geometry">
            <mxPoint as="offset" />
          </mxGeometry>
        </mxCell>
        <mxCell id="8kfr4gid1qoiPzw3sICz-29" value="" style="endArrow=none;dashed=1;html=1;dashPattern=1 3;strokeWidth=2;rounded=0;" edge="1" parent="1">
          <mxGeometry width="50" height="50" relative="1" as="geometry">
            <mxPoint x="280" y="140" as="sourcePoint" />
            <mxPoint x="540" y="140" as="targetPoint" />
          </mxGeometry>
        </mxCell>
        <mxCell id="8kfr4gid1qoiPzw3sICz-33" value="" style="endArrow=classic;html=1;rounded=0;entryX=1;entryY=1;entryDx=0;entryDy=0;exitX=0;exitY=0;exitDx=0;exitDy=0;" edge="1" parent="1" source="8kfr4gid1qoiPzw3sICz-2" target="8kfr4gid1qoiPzw3sICz-4">
          <mxGeometry width="50" height="50" relative="1" as="geometry">
            <mxPoint x="210" y="130" as="sourcePoint" />
            <mxPoint x="260" y="60" as="targetPoint" />
          </mxGeometry>
        </mxCell>
        <mxCell id="8kfr4gid1qoiPzw3sICz-34" value="Policies, devices" style="edgeLabel;html=1;align=center;verticalAlign=middle;resizable=0;points=[];" vertex="1" connectable="0" parent="8kfr4gid1qoiPzw3sICz-33">
          <mxGeometry x="0.1678" y="2" relative="1" as="geometry">
            <mxPoint y="-1" as="offset" />
          </mxGeometry>
        </mxCell>
        <mxCell id="8kfr4gid1qoiPzw3sICz-35" value="Device" style="shape=umlActor;verticalLabelPosition=bottom;verticalAlign=top;html=1;outlineConnect=0;" vertex="1" parent="1">
          <mxGeometry x="20" y="120" width="30" height="60" as="geometry" />
        </mxCell>
        <mxCell id="8kfr4gid1qoiPzw3sICz-36" value="Device" style="shape=umlActor;verticalLabelPosition=bottom;verticalAlign=top;html=1;outlineConnect=0;" vertex="1" parent="1">
          <mxGeometry x="20" y="20" width="30" height="60" as="geometry" />
        </mxCell>
        <mxCell id="8kfr4gid1qoiPzw3sICz-42" value="" style="rounded=0;whiteSpace=wrap;html=1;fillColor=none;dashed=1;dashPattern=1 4;" vertex="1" parent="1">
          <mxGeometry y="10" width="160" height="210" as="geometry" />
        </mxCell>
        <mxCell id="8kfr4gid1qoiPzw3sICz-43" value="&lt;font style=&quot;font-size: 10px;&quot;&gt;Enterprise Network&lt;/font&gt;" style="text;strokeColor=none;fillColor=none;html=1;fontSize=24;fontStyle=1;verticalAlign=middle;align=center;" vertex="1" parent="1">
          <mxGeometry x="75" y="210" width="70" height="20" as="geometry" />
        </mxCell>
        <mxCell id="8kfr4gid1qoiPzw3sICz-44" value="" style="endArrow=classic;html=1;rounded=0;entryX=0;entryY=0.567;entryDx=0;entryDy=0;entryPerimeter=0;" edge="1" parent="1" target="8kfr4gid1qoiPzw3sICz-3">
          <mxGeometry width="50" height="50" relative="1" as="geometry">
            <mxPoint x="540" y="320" as="sourcePoint" />
            <mxPoint x="600" y="320" as="targetPoint" />
          </mxGeometry>
        </mxCell>
        <mxCell id="8kfr4gid1qoiPzw3sICz-46" value="Http" style="edgeLabel;html=1;align=center;verticalAlign=middle;resizable=0;points=[];" vertex="1" connectable="0" parent="8kfr4gid1qoiPzw3sICz-44">
          <mxGeometry x="0.1533" y="8" relative="1" as="geometry">
            <mxPoint as="offset" />
          </mxGeometry>
        </mxCell>
        <mxCell id="8kfr4gid1qoiPzw3sICz-45" value="" style="endArrow=classic;html=1;rounded=0;" edge="1" parent="1">
          <mxGeometry width="50" height="50" relative="1" as="geometry">
            <mxPoint x="670" y="300" as="sourcePoint" />
            <mxPoint x="540" y="305" as="targetPoint" />
          </mxGeometry>
        </mxCell>
        <mxCell id="8kfr4gid1qoiPzw3sICz-47" value="" style="endArrow=classic;startArrow=classic;html=1;rounded=0;" edge="1" parent="1">
          <mxGeometry width="50" height="50" relative="1" as="geometry">
            <mxPoint x="540" y="350" as="sourcePoint" />
            <mxPoint x="670" y="350" as="targetPoint" />
          </mxGeometry>
        </mxCell>
        <mxCell id="8kfr4gid1qoiPzw3sICz-49" value="Websocket" style="edgeLabel;html=1;align=center;verticalAlign=middle;resizable=0;points=[];" vertex="1" connectable="0" parent="8kfr4gid1qoiPzw3sICz-47">
          <mxGeometry x="-0.4677" relative="1" as="geometry">
            <mxPoint x="25" as="offset" />
          </mxGeometry>
        </mxCell>
        <mxCell id="8kfr4gid1qoiPzw3sICz-51" value="Enterprise MDM" style="rounded=0;whiteSpace=wrap;html=1;" vertex="1" parent="1">
          <mxGeometry x="410" y="20" width="120" height="60" as="geometry" />
        </mxCell>
        <mxCell id="8kfr4gid1qoiPzw3sICz-52" value="Tower data service and adaptors" style="rounded=0;whiteSpace=wrap;html=1;" vertex="1" parent="1">
          <mxGeometry x="290" y="370" width="120" height="60" as="geometry" />
        </mxCell>
        <mxCell id="8kfr4gid1qoiPzw3sICz-53" value="User and Device service, adaptors for different MDMs" style="rounded=0;whiteSpace=wrap;html=1;" vertex="1" parent="1">
          <mxGeometry x="420" y="150" width="110" height="60" as="geometry" />
        </mxCell>
        <mxCell id="8kfr4gid1qoiPzw3sICz-54" value="" style="endArrow=classic;html=1;rounded=0;entryX=0.5;entryY=1;entryDx=0;entryDy=0;" edge="1" parent="1" target="8kfr4gid1qoiPzw3sICz-51">
          <mxGeometry width="50" height="50" relative="1" as="geometry">
            <mxPoint x="470" y="150" as="sourcePoint" />
            <mxPoint x="360" y="220" as="targetPoint" />
          </mxGeometry>
        </mxCell>
        <mxCell id="8kfr4gid1qoiPzw3sICz-60" value="Fetch users, roles and devices at configured intervals,&lt;div&gt;onboard auto-discovered devices&lt;/div&gt;" style="edgeLabel;html=1;align=center;verticalAlign=middle;resizable=0;points=[];" vertex="1" connectable="0" parent="8kfr4gid1qoiPzw3sICz-54">
          <mxGeometry x="-0.0286" relative="1" as="geometry">
            <mxPoint as="offset" />
          </mxGeometry>
        </mxCell>
        <mxCell id="8kfr4gid1qoiPzw3sICz-55" value="Communications real estate developer" style="rounded=0;whiteSpace=wrap;html=1;" vertex="1" parent="1">
          <mxGeometry x="75" y="510" width="120" height="60" as="geometry" />
        </mxCell>
        <mxCell id="8kfr4gid1qoiPzw3sICz-56" value="" style="endArrow=classic;html=1;rounded=0;exitX=0;exitY=1;exitDx=0;exitDy=0;entryX=1;entryY=0;entryDx=0;entryDy=0;" edge="1" parent="1" source="8kfr4gid1qoiPzw3sICz-52" target="8kfr4gid1qoiPzw3sICz-55">
          <mxGeometry width="50" height="50" relative="1" as="geometry">
            <mxPoint x="310" y="400" as="sourcePoint" />
            <mxPoint x="360" y="350" as="targetPoint" />
          </mxGeometry>
        </mxCell>
        <mxCell id="8kfr4gid1qoiPzw3sICz-57" value="Towers data,&lt;div&gt;&amp;nbsp;its location, carriers&lt;/div&gt;" style="edgeLabel;html=1;align=center;verticalAlign=middle;resizable=0;points=[];" vertex="1" connectable="0" parent="8kfr4gid1qoiPzw3sICz-56">
          <mxGeometry x="0.0545" y="1" relative="1" as="geometry">
            <mxPoint as="offset" />
          </mxGeometry>
        </mxCell>
        <mxCell id="8kfr4gid1qoiPzw3sICz-59" value="Other services" style="rounded=0;whiteSpace=wrap;html=1;" vertex="1" parent="1">
          <mxGeometry x="400" y="300" width="120" height="40" as="geometry" />
        </mxCell>
        <mxCell id="8kfr4gid1qoiPzw3sICz-63" value="Inventory manager" style="shape=umlActor;verticalLabelPosition=bottom;verticalAlign=top;html=1;outlineConnect=0;" vertex="1" parent="1">
          <mxGeometry x="950" y="200" width="30" height="60" as="geometry" />
        </mxCell>
        <mxCell id="8kfr4gid1qoiPzw3sICz-65" value="" style="rounded=0;whiteSpace=wrap;html=1;fillColor=none;movable=1;resizable=1;rotatable=1;deletable=1;editable=1;locked=0;connectable=1;dashed=1;dashPattern=1 4;" vertex="1" parent="1">
          <mxGeometry x="890" y="70" width="240" height="230" as="geometry" />
        </mxCell>
        <mxCell id="8kfr4gid1qoiPzw3sICz-64" value="Enterprise admin" style="shape=umlActor;verticalLabelPosition=bottom;verticalAlign=top;html=1;outlineConnect=0;" vertex="1" parent="1">
          <mxGeometry x="1060" y="200" width="30" height="60" as="geometry" />
        </mxCell>
        <mxCell id="8kfr4gid1qoiPzw3sICz-62" value="Security analyst" style="shape=umlActor;verticalLabelPosition=bottom;verticalAlign=top;html=1;outlineConnect=0;" vertex="1" parent="1">
          <mxGeometry x="1060" y="90" width="30" height="60" as="geometry" />
        </mxCell>
        <mxCell id="8kfr4gid1qoiPzw3sICz-61" value="Policy admin" style="shape=umlActor;verticalLabelPosition=bottom;verticalAlign=top;html=1;outlineConnect=0;" vertex="1" parent="1">
          <mxGeometry x="950" y="90" width="30" height="60" as="geometry" />
        </mxCell>
        <mxCell id="8kfr4gid1qoiPzw3sICz-68" value="" style="rounded=0;whiteSpace=wrap;html=1;fillColor=none;movable=1;resizable=1;rotatable=1;deletable=1;editable=1;locked=0;connectable=1;dashed=1;dashPattern=1 4;" vertex="1" parent="1">
          <mxGeometry x="890" y="330" width="240" height="120" as="geometry" />
        </mxCell>
        <mxCell id="8kfr4gid1qoiPzw3sICz-70" value="Tower manager" style="shape=umlActor;verticalLabelPosition=bottom;verticalAlign=top;html=1;outlineConnect=0;" vertex="1" parent="1">
          <mxGeometry x="1060" y="350" width="30" height="60" as="geometry" />
        </mxCell>
        <mxCell id="8kfr4gid1qoiPzw3sICz-71" value="Onbaording specialist" style="shape=umlActor;verticalLabelPosition=bottom;verticalAlign=top;html=1;outlineConnect=0;" vertex="1" parent="1">
          <mxGeometry x="950" y="350" width="30" height="60" as="geometry" />
        </mxCell>
        <mxCell id="8kfr4gid1qoiPzw3sICz-72" value="&lt;font style=&quot;font-size: 10px;&quot;&gt;Saas users/employees&lt;/font&gt;" style="text;strokeColor=none;fillColor=none;html=1;fontSize=24;fontStyle=1;verticalAlign=middle;align=center;" vertex="1" parent="1">
          <mxGeometry x="890" y="315" width="100" height="15" as="geometry" />
        </mxCell>
        <mxCell id="8kfr4gid1qoiPzw3sICz-73" value="&lt;font style=&quot;font-size: 10px;&quot;&gt;Enterprise employees/users&lt;/font&gt;" style="text;strokeColor=none;fillColor=none;html=1;fontSize=24;fontStyle=1;verticalAlign=middle;align=center;" vertex="1" parent="1">
          <mxGeometry x="890" y="60" width="100" height="15" as="geometry" />
        </mxCell>
        <mxCell id="8kfr4gid1qoiPzw3sICz-74" value="" style="endArrow=classic;html=1;rounded=0;exitX=0;exitY=0.5;exitDx=0;exitDy=0;entryX=1;entryY=0.5;entryDx=0;entryDy=0;" edge="1" parent="1" source="8kfr4gid1qoiPzw3sICz-68" target="8kfr4gid1qoiPzw3sICz-78">
          <mxGeometry width="50" height="50" relative="1" as="geometry">
            <mxPoint x="770" y="310" as="sourcePoint" />
            <mxPoint x="820" y="260" as="targetPoint" />
          </mxGeometry>
        </mxCell>
        <mxCell id="8kfr4gid1qoiPzw3sICz-76" value="" style="endArrow=classic;html=1;rounded=0;exitX=0;exitY=0.75;exitDx=0;exitDy=0;entryX=1.028;entryY=0.59;entryDx=0;entryDy=0;entryPerimeter=0;" edge="1" parent="1" source="8kfr4gid1qoiPzw3sICz-65" target="8kfr4gid1qoiPzw3sICz-77">
          <mxGeometry width="50" height="50" relative="1" as="geometry">
            <mxPoint x="770" y="310" as="sourcePoint" />
            <mxPoint x="820" y="260" as="targetPoint" />
          </mxGeometry>
        </mxCell>
        <mxCell id="8kfr4gid1qoiPzw3sICz-78" value="" style="rounded=0;whiteSpace=wrap;html=1;fillColor=none;dashed=1;dashPattern=1 4;" vertex="1" parent="1">
          <mxGeometry x="680" y="355" width="80" height="90" as="geometry" />
        </mxCell>
      </root>
    </mxGraphModel>
  </diagram>
</mxfile>
